# xmcd
#
# Track frame offsets:
#	182
#	15572
#	29442
#	42525
#	57160
#	70960
#	84910
#	99027
#	113317
#	126662
#	139802
#	153880
#	165927
#	182117
#	198110
#	211855
#	224235
#	238087
#	252530
#	266482
#	278970
#	293887
#	308840
#	322300
#	336842
#
# Disc length: 4679 seconds
#
# Revision: 0
# Processed by: cddbd v1.5.1PL0 Copyright (c) Steve Scherf et al.
# Submitted via: dBpowerAMP V4.0
#
DISCID=74124519
DTITLE=Various Artist - TOP DAnce 15
DYEAR=1995
DGENRE=Dance
TTITLE0=Pizzaman - Sex on the Streets
TTITLE1=740 Boys - Shimmy Shake
TTITLE2=Tom Wilson - Technocat Dance Like Your Dad
TTITLE3=Sister Queen - Let Me Be A Drag Queen
TTITLE4=Th Express - Missing In the Rain
TTITLE5=De'Lacy - Hideaway - Deep Dish
TTITLE6=Shut Up and Dance - The Weekend's Herre
TTITLE7=Porno feat. Jenna Bare - I Can Do It Better Myself
TTITLE8=Twins - Rage
TTITLE9=Freak Brothers - Push Taht Funky Feeling
TTITLE10=Shauna Davis - Get Away - Stonebridge and Nick Nice
TTITLE11=Max A Million - Take Your Time (Do It Right)
TTITLE12=Duke - So in Love With You - Pizzaman House
TTITLE13=2 Brothers on the 4th Floor - Come Take My Hand
TTITLE14=The Nutcrackers - Oup! Banana
TTITLE15=B-Code - I Feal Good
TTITLE16=Groovology - Set Me Free
TTITLE17=The Original - I Love U Baby
TTITLE18=Cherry Moon - Everybody Get Down
TTITLE19=Cartouche - Miracles
TTITLE20=Junior Vasquez - Reap for You Sow
TTITLE21=Echo Bass - Givin'It Up
TTITLE22=Bj Bobo - Freedom
TTITLE23=Rozlyne Clarke - Knockin' Me Out
TTITLE24=Blackbox - A Positive Vibration
EXTD=
EXTT0=
EXTT1=
EXTT2=
EXTT3=
EXTT4=
EXTT5=
EXTT6=
EXTT7=
EXTT8=
EXTT9=
EXTT10=
EXTT11=
EXTT12=
EXTT13=
EXTT14=
EXTT15=
EXTT16=
EXTT17=
EXTT18=
EXTT19=
EXTT20=
EXTT21=
EXTT22=
EXTT23=
EXTT24=
PLAYORDER=
